<mxfile host="app.diagrams.net" modified="2023-11-17T22:13:13.307Z" agent="Mozilla/5.0 (Windows NT 10.0; Win64; x64) AppleWebKit/537.36 (KHTML, like Gecko) Chrome/119.0.0.0 Safari/537.36" etag="UNmhCareSULi4L_8SaNa" version="21.3.2" type="device" pages="2">
  <diagram name="Página-1" id="WNBtej8mNtF1Y0KZvnqG">
    <mxGraphModel dx="1188" dy="1657" grid="1" gridSize="10" guides="1" tooltips="1" connect="1" arrows="1" fold="1" page="1" pageScale="1" pageWidth="827" pageHeight="1169" math="0" shadow="0">
      <root>
        <mxCell id="0" />
        <mxCell id="1" parent="0" />
        <mxCell id="9IDsitMGJpCzz58II1y--1" value="Cliente" style="swimlane;fontStyle=0;childLayout=stackLayout;horizontal=1;startSize=30;horizontalStack=0;resizeParent=1;resizeParentMax=0;resizeLast=0;collapsible=1;marginBottom=0;whiteSpace=wrap;html=1;" vertex="1" parent="1">
          <mxGeometry x="40" y="38" width="140" height="120" as="geometry" />
        </mxCell>
        <mxCell id="9IDsitMGJpCzz58II1y--2" value="&amp;nbsp;ID_cliente PK INT" style="text;strokeColor=none;fillColor=none;align=left;verticalAlign=middle;spacingLeft=4;spacingRight=4;overflow=hidden;points=[[0,0.5],[1,0.5]];portConstraint=eastwest;rotatable=0;whiteSpace=wrap;html=1;" vertex="1" parent="9IDsitMGJpCzz58II1y--1">
          <mxGeometry y="30" width="140" height="30" as="geometry" />
        </mxCell>
        <mxCell id="9IDsitMGJpCzz58II1y--3" value="Nome CHAR" style="text;strokeColor=none;fillColor=none;align=left;verticalAlign=middle;spacingLeft=4;spacingRight=4;overflow=hidden;points=[[0,0.5],[1,0.5]];portConstraint=eastwest;rotatable=0;whiteSpace=wrap;html=1;" vertex="1" parent="9IDsitMGJpCzz58II1y--1">
          <mxGeometry y="60" width="140" height="30" as="geometry" />
        </mxCell>
        <mxCell id="9IDsitMGJpCzz58II1y--4" value="CPF INT" style="text;strokeColor=none;fillColor=none;align=left;verticalAlign=middle;spacingLeft=4;spacingRight=4;overflow=hidden;points=[[0,0.5],[1,0.5]];portConstraint=eastwest;rotatable=0;whiteSpace=wrap;html=1;" vertex="1" parent="9IDsitMGJpCzz58II1y--1">
          <mxGeometry y="90" width="140" height="30" as="geometry" />
        </mxCell>
        <mxCell id="9IDsitMGJpCzz58II1y--6" value="Funcionário" style="swimlane;fontStyle=0;childLayout=stackLayout;horizontal=1;startSize=30;horizontalStack=0;resizeParent=1;resizeParentMax=0;resizeLast=0;collapsible=1;marginBottom=0;whiteSpace=wrap;html=1;" vertex="1" parent="1">
          <mxGeometry x="280" y="-21" width="140" height="180" as="geometry" />
        </mxCell>
        <mxCell id="9IDsitMGJpCzz58II1y--7" value="Cod_func. PK INT" style="text;strokeColor=none;fillColor=none;align=left;verticalAlign=middle;spacingLeft=4;spacingRight=4;overflow=hidden;points=[[0,0.5],[1,0.5]];portConstraint=eastwest;rotatable=0;whiteSpace=wrap;html=1;" vertex="1" parent="9IDsitMGJpCzz58II1y--6">
          <mxGeometry y="30" width="140" height="30" as="geometry" />
        </mxCell>
        <mxCell id="9IDsitMGJpCzz58II1y--9" value="Telefone FLOAT" style="text;strokeColor=none;fillColor=none;align=left;verticalAlign=middle;spacingLeft=4;spacingRight=4;overflow=hidden;points=[[0,0.5],[1,0.5]];portConstraint=eastwest;rotatable=0;whiteSpace=wrap;html=1;" vertex="1" parent="9IDsitMGJpCzz58II1y--6">
          <mxGeometry y="60" width="140" height="30" as="geometry" />
        </mxCell>
        <mxCell id="9IDsitMGJpCzz58II1y--8" value="Nome CHAR" style="text;strokeColor=none;fillColor=none;align=left;verticalAlign=middle;spacingLeft=4;spacingRight=4;overflow=hidden;points=[[0,0.5],[1,0.5]];portConstraint=eastwest;rotatable=0;whiteSpace=wrap;html=1;" vertex="1" parent="9IDsitMGJpCzz58II1y--6">
          <mxGeometry y="90" width="140" height="30" as="geometry" />
        </mxCell>
        <mxCell id="9IDsitMGJpCzz58II1y--10" value="Data_nasc. DATE" style="text;strokeColor=none;fillColor=none;align=left;verticalAlign=middle;spacingLeft=4;spacingRight=4;overflow=hidden;points=[[0,0.5],[1,0.5]];portConstraint=eastwest;rotatable=0;whiteSpace=wrap;html=1;" vertex="1" parent="9IDsitMGJpCzz58II1y--6">
          <mxGeometry y="120" width="140" height="30" as="geometry" />
        </mxCell>
        <mxCell id="8JMN5FoSC-l-GgnekPnJ-1" value="CPF INT" style="text;strokeColor=none;fillColor=none;align=left;verticalAlign=middle;spacingLeft=4;spacingRight=4;overflow=hidden;points=[[0,0.5],[1,0.5]];portConstraint=eastwest;rotatable=0;whiteSpace=wrap;html=1;" vertex="1" parent="9IDsitMGJpCzz58II1y--6">
          <mxGeometry y="150" width="140" height="30" as="geometry" />
        </mxCell>
        <mxCell id="9IDsitMGJpCzz58II1y--11" value="Protudo" style="swimlane;fontStyle=0;childLayout=stackLayout;horizontal=1;startSize=30;horizontalStack=0;resizeParent=1;resizeParentMax=0;resizeLast=0;collapsible=1;marginBottom=0;whiteSpace=wrap;html=1;" vertex="1" parent="1">
          <mxGeometry x="280" y="399" width="140" height="150" as="geometry" />
        </mxCell>
        <mxCell id="9IDsitMGJpCzz58II1y--12" value="Cod_produto PK INT" style="text;strokeColor=none;fillColor=none;align=left;verticalAlign=middle;spacingLeft=4;spacingRight=4;overflow=hidden;points=[[0,0.5],[1,0.5]];portConstraint=eastwest;rotatable=0;whiteSpace=wrap;html=1;" vertex="1" parent="9IDsitMGJpCzz58II1y--11">
          <mxGeometry y="30" width="140" height="30" as="geometry" />
        </mxCell>
        <mxCell id="9IDsitMGJpCzz58II1y--13" value="Nome CHAR" style="text;strokeColor=none;fillColor=none;align=left;verticalAlign=middle;spacingLeft=4;spacingRight=4;overflow=hidden;points=[[0,0.5],[1,0.5]];portConstraint=eastwest;rotatable=0;whiteSpace=wrap;html=1;" vertex="1" parent="9IDsitMGJpCzz58II1y--11">
          <mxGeometry y="60" width="140" height="30" as="geometry" />
        </mxCell>
        <mxCell id="9IDsitMGJpCzz58II1y--14" value="Preco INT" style="text;strokeColor=none;fillColor=none;align=left;verticalAlign=middle;spacingLeft=4;spacingRight=4;overflow=hidden;points=[[0,0.5],[1,0.5]];portConstraint=eastwest;rotatable=0;whiteSpace=wrap;html=1;" vertex="1" parent="9IDsitMGJpCzz58II1y--11">
          <mxGeometry y="90" width="140" height="30" as="geometry" />
        </mxCell>
        <mxCell id="9IDsitMGJpCzz58II1y--16" value="Estoque VARCHAR" style="text;strokeColor=none;fillColor=none;align=left;verticalAlign=middle;spacingLeft=4;spacingRight=4;overflow=hidden;points=[[0,0.5],[1,0.5]];portConstraint=eastwest;rotatable=0;whiteSpace=wrap;html=1;" vertex="1" parent="9IDsitMGJpCzz58II1y--11">
          <mxGeometry y="120" width="140" height="30" as="geometry" />
        </mxCell>
        <mxCell id="9IDsitMGJpCzz58II1y--17" value="Compra&amp;nbsp;" style="swimlane;fontStyle=0;childLayout=stackLayout;horizontal=1;startSize=30;horizontalStack=0;resizeParent=1;resizeParentMax=0;resizeLast=0;collapsible=1;marginBottom=0;whiteSpace=wrap;html=1;" vertex="1" parent="1">
          <mxGeometry x="40" y="249" width="140" height="120" as="geometry" />
        </mxCell>
        <mxCell id="9IDsitMGJpCzz58II1y--18" value="Cod_compra PK INT" style="text;strokeColor=none;fillColor=none;align=left;verticalAlign=middle;spacingLeft=4;spacingRight=4;overflow=hidden;points=[[0,0.5],[1,0.5]];portConstraint=eastwest;rotatable=0;whiteSpace=wrap;html=1;" vertex="1" parent="9IDsitMGJpCzz58II1y--17">
          <mxGeometry y="30" width="140" height="30" as="geometry" />
        </mxCell>
        <mxCell id="9IDsitMGJpCzz58II1y--20" value="Preco INT" style="text;strokeColor=none;fillColor=none;align=left;verticalAlign=middle;spacingLeft=4;spacingRight=4;overflow=hidden;points=[[0,0.5],[1,0.5]];portConstraint=eastwest;rotatable=0;whiteSpace=wrap;html=1;" vertex="1" parent="9IDsitMGJpCzz58II1y--17">
          <mxGeometry y="60" width="140" height="30" as="geometry" />
        </mxCell>
        <mxCell id="9IDsitMGJpCzz58II1y--21" value="Quantidade VARCHAR" style="text;strokeColor=none;fillColor=none;align=left;verticalAlign=middle;spacingLeft=4;spacingRight=4;overflow=hidden;points=[[0,0.5],[1,0.5]];portConstraint=eastwest;rotatable=0;whiteSpace=wrap;html=1;" vertex="1" parent="9IDsitMGJpCzz58II1y--17">
          <mxGeometry y="90" width="140" height="30" as="geometry" />
        </mxCell>
        <mxCell id="9IDsitMGJpCzz58II1y--22" value="Venda" style="swimlane;fontStyle=0;childLayout=stackLayout;horizontal=1;startSize=30;horizontalStack=0;resizeParent=1;resizeParentMax=0;resizeLast=0;collapsible=1;marginBottom=0;whiteSpace=wrap;html=1;" vertex="1" parent="1">
          <mxGeometry x="280" y="240" width="140" height="120" as="geometry" />
        </mxCell>
        <mxCell id="9IDsitMGJpCzz58II1y--23" value="Cod_venda PK INT" style="text;strokeColor=none;fillColor=none;align=left;verticalAlign=middle;spacingLeft=4;spacingRight=4;overflow=hidden;points=[[0,0.5],[1,0.5]];portConstraint=eastwest;rotatable=0;whiteSpace=wrap;html=1;" vertex="1" parent="9IDsitMGJpCzz58II1y--22">
          <mxGeometry y="30" width="140" height="30" as="geometry" />
        </mxCell>
        <mxCell id="9IDsitMGJpCzz58II1y--24" value="Cod_func. CHAR" style="text;strokeColor=none;fillColor=none;align=left;verticalAlign=middle;spacingLeft=4;spacingRight=4;overflow=hidden;points=[[0,0.5],[1,0.5]];portConstraint=eastwest;rotatable=0;whiteSpace=wrap;html=1;" vertex="1" parent="9IDsitMGJpCzz58II1y--22">
          <mxGeometry y="60" width="140" height="30" as="geometry" />
        </mxCell>
        <mxCell id="9IDsitMGJpCzz58II1y--26" value="Quantidade VARCHAR" style="text;strokeColor=none;fillColor=none;align=left;verticalAlign=middle;spacingLeft=4;spacingRight=4;overflow=hidden;points=[[0,0.5],[1,0.5]];portConstraint=eastwest;rotatable=0;whiteSpace=wrap;html=1;" vertex="1" parent="9IDsitMGJpCzz58II1y--22">
          <mxGeometry y="90" width="140" height="30" as="geometry" />
        </mxCell>
        <mxCell id="9IDsitMGJpCzz58II1y--27" value="" style="endArrow=none;html=1;rounded=0;" edge="1" parent="1">
          <mxGeometry width="50" height="50" relative="1" as="geometry">
            <mxPoint x="180" y="90" as="sourcePoint" />
            <mxPoint x="280" y="90" as="targetPoint" />
          </mxGeometry>
        </mxCell>
        <mxCell id="9IDsitMGJpCzz58II1y--28" value="1&amp;nbsp; &amp;nbsp; &amp;nbsp; &amp;nbsp; &amp;nbsp; &amp;nbsp; &amp;nbsp; &amp;nbsp; &amp;nbsp; &amp;nbsp; &amp;nbsp;N&amp;nbsp; &amp;nbsp;&amp;nbsp;" style="text;strokeColor=none;fillColor=none;align=left;verticalAlign=middle;spacingLeft=4;spacingRight=4;overflow=hidden;points=[[0,0.5],[1,0.5]];portConstraint=eastwest;rotatable=0;whiteSpace=wrap;html=1;" vertex="1" parent="1">
          <mxGeometry x="180" y="76" width="100" height="30" as="geometry" />
        </mxCell>
        <mxCell id="9IDsitMGJpCzz58II1y--31" value="" style="endArrow=none;html=1;rounded=0;" edge="1" parent="1">
          <mxGeometry width="50" height="50" relative="1" as="geometry">
            <mxPoint x="343" y="240" as="sourcePoint" />
            <mxPoint x="343" y="160" as="targetPoint" />
          </mxGeometry>
        </mxCell>
        <mxCell id="9IDsitMGJpCzz58II1y--32" value="1" style="text;strokeColor=none;fillColor=none;align=left;verticalAlign=middle;spacingLeft=4;spacingRight=4;overflow=hidden;points=[[0,0.5],[1,0.5]];portConstraint=eastwest;rotatable=0;whiteSpace=wrap;html=1;" vertex="1" parent="1">
          <mxGeometry x="340" y="158" width="110" height="30" as="geometry" />
        </mxCell>
        <mxCell id="9IDsitMGJpCzz58II1y--33" value="N" style="text;strokeColor=none;fillColor=none;align=left;verticalAlign=middle;spacingLeft=4;spacingRight=4;overflow=hidden;points=[[0,0.5],[1,0.5]];portConstraint=eastwest;rotatable=0;whiteSpace=wrap;html=1;" vertex="1" parent="1">
          <mxGeometry x="340" y="218" width="110" height="30" as="geometry" />
        </mxCell>
        <mxCell id="9IDsitMGJpCzz58II1y--34" value="" style="endArrow=none;html=1;rounded=0;exitX=0.5;exitY=0;exitDx=0;exitDy=0;" edge="1" parent="1" source="9IDsitMGJpCzz58II1y--17">
          <mxGeometry width="50" height="50" relative="1" as="geometry">
            <mxPoint x="110" y="240" as="sourcePoint" />
            <mxPoint x="110" y="160" as="targetPoint" />
          </mxGeometry>
        </mxCell>
        <mxCell id="9IDsitMGJpCzz58II1y--36" value="1" style="text;strokeColor=none;fillColor=none;align=left;verticalAlign=middle;spacingLeft=4;spacingRight=4;overflow=hidden;points=[[0,0.5],[1,0.5]];portConstraint=eastwest;rotatable=0;whiteSpace=wrap;html=1;" vertex="1" parent="1">
          <mxGeometry x="106" y="153" width="110" height="30" as="geometry" />
        </mxCell>
        <mxCell id="9IDsitMGJpCzz58II1y--37" value="N" style="text;strokeColor=none;fillColor=none;align=left;verticalAlign=middle;spacingLeft=4;spacingRight=4;overflow=hidden;points=[[0,0.5],[1,0.5]];portConstraint=eastwest;rotatable=0;whiteSpace=wrap;html=1;" vertex="1" parent="1">
          <mxGeometry x="105" y="227" width="110" height="30" as="geometry" />
        </mxCell>
        <mxCell id="9IDsitMGJpCzz58II1y--38" value="" style="endArrow=none;html=1;rounded=0;entryX=0.569;entryY=1.089;entryDx=0;entryDy=0;entryPerimeter=0;" edge="1" parent="1">
          <mxGeometry width="50" height="50" relative="1" as="geometry">
            <mxPoint x="120" y="490" as="sourcePoint" />
            <mxPoint x="119.66000000000008" y="368.6700000000001" as="targetPoint" />
          </mxGeometry>
        </mxCell>
        <mxCell id="9IDsitMGJpCzz58II1y--39" value="" style="endArrow=none;html=1;rounded=0;" edge="1" parent="1">
          <mxGeometry width="50" height="50" relative="1" as="geometry">
            <mxPoint x="120" y="489" as="sourcePoint" />
            <mxPoint x="281" y="489" as="targetPoint" />
          </mxGeometry>
        </mxCell>
        <mxCell id="9IDsitMGJpCzz58II1y--40" value="1" style="text;strokeColor=none;fillColor=none;align=left;verticalAlign=middle;spacingLeft=4;spacingRight=4;overflow=hidden;points=[[0,0.5],[1,0.5]];portConstraint=eastwest;rotatable=0;whiteSpace=wrap;html=1;" vertex="1" parent="1">
          <mxGeometry x="119" y="399" width="110" height="30" as="geometry" />
        </mxCell>
        <mxCell id="9IDsitMGJpCzz58II1y--42" value="N" style="text;strokeColor=none;fillColor=none;align=left;verticalAlign=middle;spacingLeft=4;spacingRight=4;overflow=hidden;points=[[0,0.5],[1,0.5]];portConstraint=eastwest;rotatable=0;whiteSpace=wrap;html=1;" vertex="1" parent="1">
          <mxGeometry x="258" y="468" width="35" height="30" as="geometry" />
        </mxCell>
      </root>
    </mxGraphModel>
  </diagram>
  <diagram id="gTAWQsLcThbB-EVpcJsO" name="Página-2">
    <mxGraphModel dx="1188" dy="1657" grid="1" gridSize="10" guides="1" tooltips="1" connect="1" arrows="1" fold="1" page="1" pageScale="1" pageWidth="827" pageHeight="1169" math="0" shadow="0">
      <root>
        <mxCell id="0" />
        <mxCell id="1" parent="0" />
        <mxCell id="TGwj6kx8lCMdZ5QqpN_F-1" value="" style="swimlane;startSize=0;" vertex="1" parent="1">
          <mxGeometry x="40" y="40" width="120" height="40" as="geometry" />
        </mxCell>
        <mxCell id="TGwj6kx8lCMdZ5QqpN_F-8" value="CLIENTE" style="text;strokeColor=none;fillColor=none;align=left;verticalAlign=middle;spacingLeft=4;spacingRight=4;overflow=hidden;points=[[0,0.5],[1,0.5]];portConstraint=eastwest;rotatable=0;whiteSpace=wrap;html=1;" vertex="1" parent="TGwj6kx8lCMdZ5QqpN_F-1">
          <mxGeometry x="25" y="5" width="70" height="30" as="geometry" />
        </mxCell>
        <mxCell id="TGwj6kx8lCMdZ5QqpN_F-10" value="" style="endArrow=classic;html=1;rounded=0;elbow=vertical;" edge="1" parent="1">
          <mxGeometry width="50" height="50" relative="1" as="geometry">
            <mxPoint x="97" y="41" as="sourcePoint" />
            <mxPoint x="97" y="12" as="targetPoint" />
          </mxGeometry>
        </mxCell>
        <mxCell id="TGwj6kx8lCMdZ5QqpN_F-11" value="&amp;nbsp;ID_cliente" style="text;strokeColor=none;fillColor=none;align=left;verticalAlign=middle;spacingLeft=4;spacingRight=4;overflow=hidden;points=[[0,0.5],[1,0.5]];portConstraint=eastwest;rotatable=0;whiteSpace=wrap;html=1;" vertex="1" parent="1">
          <mxGeometry x="70" y="-11" width="80" height="30" as="geometry" />
        </mxCell>
        <mxCell id="Pe1Xa0jGYvy3Gdhccji2-1" value="" style="endArrow=none;html=1;rounded=0;elbow=vertical;" edge="1" parent="1">
          <mxGeometry width="50" height="50" relative="1" as="geometry">
            <mxPoint x="134" y="100" as="sourcePoint" />
            <mxPoint x="134" y="80" as="targetPoint" />
          </mxGeometry>
        </mxCell>
        <mxCell id="Pe1Xa0jGYvy3Gdhccji2-2" value="Nome" style="text;strokeColor=none;fillColor=none;align=left;verticalAlign=middle;spacingLeft=4;spacingRight=4;overflow=hidden;points=[[0,0.5],[1,0.5]];portConstraint=eastwest;rotatable=0;whiteSpace=wrap;html=1;" vertex="1" parent="1">
          <mxGeometry x="112" y="91" width="80" height="30" as="geometry" />
        </mxCell>
        <mxCell id="Pe1Xa0jGYvy3Gdhccji2-4" value="" style="endArrow=none;html=1;rounded=0;elbow=vertical;" edge="1" parent="1">
          <mxGeometry width="50" height="50" relative="1" as="geometry">
            <mxPoint x="61" y="101" as="sourcePoint" />
            <mxPoint x="61" y="81" as="targetPoint" />
          </mxGeometry>
        </mxCell>
        <mxCell id="_7Eo2WTnj8_EpAlMde3A-3" style="edgeStyle=elbowEdgeStyle;rounded=0;orthogonalLoop=1;jettySize=auto;elbow=vertical;html=1;exitX=1;exitY=0.5;exitDx=0;exitDy=0;" edge="1" parent="1" source="Pe1Xa0jGYvy3Gdhccji2-5" target="Pe1Xa0jGYvy3Gdhccji2-2">
          <mxGeometry relative="1" as="geometry" />
        </mxCell>
        <mxCell id="Pe1Xa0jGYvy3Gdhccji2-5" value="CPF" style="text;strokeColor=none;fillColor=none;align=left;verticalAlign=middle;spacingLeft=4;spacingRight=4;overflow=hidden;points=[[0,0.5],[1,0.5]];portConstraint=eastwest;rotatable=0;whiteSpace=wrap;html=1;" vertex="1" parent="1">
          <mxGeometry x="44" y="93" width="80" height="30" as="geometry" />
        </mxCell>
        <mxCell id="Pe1Xa0jGYvy3Gdhccji2-8" value="" style="swimlane;startSize=0;" vertex="1" parent="1">
          <mxGeometry x="469" y="40" width="130" height="40" as="geometry" />
        </mxCell>
        <mxCell id="Pe1Xa0jGYvy3Gdhccji2-10" value="" style="endArrow=classic;html=1;rounded=0;elbow=vertical;" edge="1" parent="1">
          <mxGeometry width="50" height="50" relative="1" as="geometry">
            <mxPoint x="581" y="80" as="sourcePoint" />
            <mxPoint x="581" y="101.5" as="targetPoint" />
          </mxGeometry>
        </mxCell>
        <mxCell id="RXHWecBcfRbxpTFJVVi9-1" value="Cod_funcionario" style="text;strokeColor=none;fillColor=none;align=left;verticalAlign=middle;spacingLeft=4;spacingRight=4;overflow=hidden;points=[[0,0.5],[1,0.5]];portConstraint=eastwest;rotatable=0;whiteSpace=wrap;html=1;" vertex="1" parent="1">
          <mxGeometry x="552" y="93" width="137" height="30" as="geometry" />
        </mxCell>
        <mxCell id="RXHWecBcfRbxpTFJVVi9-2" value="" style="endArrow=none;html=1;rounded=0;elbow=vertical;" edge="1" parent="1">
          <mxGeometry width="50" height="50" relative="1" as="geometry">
            <mxPoint x="475" y="100" as="sourcePoint" />
            <mxPoint x="486" y="80" as="targetPoint" />
          </mxGeometry>
        </mxCell>
        <mxCell id="_7Eo2WTnj8_EpAlMde3A-1" value="Telefone" style="text;strokeColor=none;fillColor=none;align=left;verticalAlign=middle;spacingLeft=4;spacingRight=4;overflow=hidden;points=[[0,0.5],[1,0.5]];portConstraint=eastwest;rotatable=0;whiteSpace=wrap;html=1;" vertex="1" parent="1">
          <mxGeometry x="448" y="93" width="80" height="30" as="geometry" />
        </mxCell>
        <mxCell id="_7Eo2WTnj8_EpAlMde3A-8" value="" style="endArrow=none;html=1;rounded=0;elbow=vertical;" edge="1" parent="1">
          <mxGeometry width="50" height="50" relative="1" as="geometry">
            <mxPoint x="551" y="41" as="sourcePoint" />
            <mxPoint x="551" y="21" as="targetPoint" />
          </mxGeometry>
        </mxCell>
        <mxCell id="_7Eo2WTnj8_EpAlMde3A-9" value="" style="endArrow=none;html=1;rounded=0;elbow=vertical;" edge="1" parent="1">
          <mxGeometry width="50" height="50" relative="1" as="geometry">
            <mxPoint x="426" y="40" as="sourcePoint" />
            <mxPoint x="426" y="40" as="targetPoint" />
          </mxGeometry>
        </mxCell>
        <mxCell id="_7Eo2WTnj8_EpAlMde3A-10" value="" style="endArrow=none;html=1;rounded=0;elbow=vertical;" edge="1" parent="1">
          <mxGeometry width="50" height="50" relative="1" as="geometry">
            <mxPoint x="479" y="40" as="sourcePoint" />
            <mxPoint x="479" y="20" as="targetPoint" />
          </mxGeometry>
        </mxCell>
        <mxCell id="_7Eo2WTnj8_EpAlMde3A-11" value="Nome" style="text;strokeColor=none;fillColor=none;align=left;verticalAlign=middle;spacingLeft=4;spacingRight=4;overflow=hidden;points=[[0,0.5],[1,0.5]];portConstraint=eastwest;rotatable=0;whiteSpace=wrap;html=1;" vertex="1" parent="1">
          <mxGeometry x="457" width="80" height="30" as="geometry" />
        </mxCell>
        <mxCell id="_7Eo2WTnj8_EpAlMde3A-12" value="Data_nasc" style="text;strokeColor=none;fillColor=none;align=left;verticalAlign=middle;spacingLeft=4;spacingRight=4;overflow=hidden;points=[[0,0.5],[1,0.5]];portConstraint=eastwest;rotatable=0;whiteSpace=wrap;html=1;" vertex="1" parent="1">
          <mxGeometry x="520" y="-2" width="137" height="30" as="geometry" />
        </mxCell>
        <mxCell id="_7Eo2WTnj8_EpAlMde3A-13" value="CPF" style="text;strokeColor=none;fillColor=none;align=left;verticalAlign=middle;spacingLeft=4;spacingRight=4;overflow=hidden;points=[[0,0.5],[1,0.5]];portConstraint=eastwest;rotatable=0;whiteSpace=wrap;html=1;" vertex="1" parent="1">
          <mxGeometry x="608" y="10" width="80" height="30" as="geometry" />
        </mxCell>
        <mxCell id="_7Eo2WTnj8_EpAlMde3A-14" value="" style="endArrow=none;html=1;rounded=0;elbow=vertical;" edge="1" parent="1">
          <mxGeometry width="50" height="50" relative="1" as="geometry">
            <mxPoint x="599" y="39" as="sourcePoint" />
            <mxPoint x="619" y="30" as="targetPoint" />
          </mxGeometry>
        </mxCell>
        <mxCell id="_7Eo2WTnj8_EpAlMde3A-15" value="" style="swimlane;startSize=0;" vertex="1" parent="1">
          <mxGeometry x="39" y="239" width="121" height="40" as="geometry" />
        </mxCell>
        <mxCell id="_7Eo2WTnj8_EpAlMde3A-16" value="COMPRA" style="text;strokeColor=none;fillColor=none;align=left;verticalAlign=middle;spacingLeft=4;spacingRight=4;overflow=hidden;points=[[0,0.5],[1,0.5]];portConstraint=eastwest;rotatable=0;whiteSpace=wrap;html=1;" vertex="1" parent="_7Eo2WTnj8_EpAlMde3A-15">
          <mxGeometry x="28" y="6" width="91" height="30" as="geometry" />
        </mxCell>
        <mxCell id="_7Eo2WTnj8_EpAlMde3A-17" value="" style="endArrow=classic;html=1;rounded=0;elbow=vertical;entryX=0.421;entryY=0.078;entryDx=0;entryDy=0;entryPerimeter=0;" edge="1" parent="1" target="jxxQ5-9rBnPjlAanwHDL-1">
          <mxGeometry width="50" height="50" relative="1" as="geometry">
            <mxPoint x="50" y="280" as="sourcePoint" />
            <mxPoint x="50" y="300" as="targetPoint" />
          </mxGeometry>
        </mxCell>
        <mxCell id="jxxQ5-9rBnPjlAanwHDL-1" value="Cod_compra&amp;nbsp;" style="text;strokeColor=none;fillColor=none;align=left;verticalAlign=middle;spacingLeft=4;spacingRight=4;overflow=hidden;points=[[0,0.5],[1,0.5]];portConstraint=eastwest;rotatable=0;whiteSpace=wrap;html=1;" vertex="1" parent="1">
          <mxGeometry x="6" y="298" width="80" height="30" as="geometry" />
        </mxCell>
        <mxCell id="jxxQ5-9rBnPjlAanwHDL-2" value="" style="endArrow=none;html=1;rounded=0;elbow=vertical;" edge="1" parent="1">
          <mxGeometry width="50" height="50" relative="1" as="geometry">
            <mxPoint x="148" y="239" as="sourcePoint" />
            <mxPoint x="148" y="220" as="targetPoint" />
            <Array as="points" />
          </mxGeometry>
        </mxCell>
        <mxCell id="0rYbZ2GncWAlYhN6HL_p-3" value="Quantidade" style="text;strokeColor=none;fillColor=none;align=left;verticalAlign=middle;spacingLeft=4;spacingRight=4;overflow=hidden;points=[[0,0.5],[1,0.5]];portConstraint=eastwest;rotatable=0;whiteSpace=wrap;html=1;" vertex="1" parent="1">
          <mxGeometry x="175" y="245" width="80" height="30" as="geometry" />
        </mxCell>
        <mxCell id="0rYbZ2GncWAlYhN6HL_p-4" value="Preço" style="text;strokeColor=none;fillColor=none;align=left;verticalAlign=middle;spacingLeft=4;spacingRight=4;overflow=hidden;points=[[0,0.5],[1,0.5]];portConstraint=eastwest;rotatable=0;whiteSpace=wrap;html=1;" vertex="1" parent="1">
          <mxGeometry x="123" y="200" width="80" height="30" as="geometry" />
        </mxCell>
        <mxCell id="PugNxQHc3r1IzAef0cKL-1" value="" style="endArrow=none;html=1;rounded=0;elbow=vertical;" edge="1" parent="1">
          <mxGeometry width="50" height="50" relative="1" as="geometry">
            <mxPoint x="159" y="260" as="sourcePoint" />
            <mxPoint x="179" y="259.75" as="targetPoint" />
          </mxGeometry>
        </mxCell>
        <mxCell id="PugNxQHc3r1IzAef0cKL-2" value="" style="swimlane;startSize=0;" vertex="1" parent="1">
          <mxGeometry x="399" y="240" width="120" height="40" as="geometry" />
        </mxCell>
        <mxCell id="PugNxQHc3r1IzAef0cKL-3" value="VENDA" style="text;strokeColor=none;fillColor=none;align=left;verticalAlign=middle;spacingLeft=4;spacingRight=4;overflow=hidden;points=[[0,0.5],[1,0.5]];portConstraint=eastwest;rotatable=0;whiteSpace=wrap;html=1;" vertex="1" parent="PugNxQHc3r1IzAef0cKL-2">
          <mxGeometry x="35" y="6" width="101" height="30" as="geometry" />
        </mxCell>
        <mxCell id="jNnpOCAIsnFn4p-u5vgC-1" value="Cod_venda" style="text;strokeColor=none;fillColor=none;align=left;verticalAlign=middle;spacingLeft=4;spacingRight=4;overflow=hidden;points=[[0,0.5],[1,0.5]];portConstraint=eastwest;rotatable=0;whiteSpace=wrap;html=1;" vertex="1" parent="1">
          <mxGeometry x="427" y="300" width="80" height="30" as="geometry" />
        </mxCell>
        <mxCell id="AkGZyfnJ1pKS8jNxMGU9-1" value="Cod_func" style="text;strokeColor=none;fillColor=none;align=left;verticalAlign=middle;spacingLeft=4;spacingRight=4;overflow=hidden;points=[[0,0.5],[1,0.5]];portConstraint=eastwest;rotatable=0;whiteSpace=wrap;html=1;" vertex="1" parent="1">
          <mxGeometry x="328" y="242" width="137" height="30" as="geometry" />
        </mxCell>
        <mxCell id="AkGZyfnJ1pKS8jNxMGU9-2" value="" style="endArrow=none;html=1;rounded=0;elbow=vertical;" edge="1" parent="1">
          <mxGeometry width="50" height="50" relative="1" as="geometry">
            <mxPoint x="519" y="257" as="sourcePoint" />
            <mxPoint x="533" y="257" as="targetPoint" />
          </mxGeometry>
        </mxCell>
        <mxCell id="aTrb8TS81qOqGab3bnKJ-1" value="Quantidade" style="text;strokeColor=none;fillColor=none;align=left;verticalAlign=middle;spacingLeft=4;spacingRight=4;overflow=hidden;points=[[0,0.5],[1,0.5]];portConstraint=eastwest;rotatable=0;whiteSpace=wrap;html=1;" vertex="1" parent="1">
          <mxGeometry x="528" y="242" width="80" height="30" as="geometry" />
        </mxCell>
        <mxCell id="aTrb8TS81qOqGab3bnKJ-3" value="" style="endArrow=none;html=1;rounded=0;elbow=vertical;" edge="1" parent="1">
          <mxGeometry width="50" height="50" relative="1" as="geometry">
            <mxPoint x="385" y="257" as="sourcePoint" />
            <mxPoint x="399" y="257" as="targetPoint" />
          </mxGeometry>
        </mxCell>
        <mxCell id="aTrb8TS81qOqGab3bnKJ-4" value="" style="swimlane;startSize=0;" vertex="1" parent="1">
          <mxGeometry x="159" y="400" width="121" height="40" as="geometry" />
        </mxCell>
        <mxCell id="_onTbmmiMZOZwnDnvUVz-1" value="PRODUTO" style="text;strokeColor=none;fillColor=none;align=left;verticalAlign=middle;spacingLeft=4;spacingRight=4;overflow=hidden;points=[[0,0.5],[1,0.5]];portConstraint=eastwest;rotatable=0;whiteSpace=wrap;html=1;" vertex="1" parent="aTrb8TS81qOqGab3bnKJ-4">
          <mxGeometry x="28.5" y="5" width="91" height="30" as="geometry" />
        </mxCell>
        <mxCell id="_onTbmmiMZOZwnDnvUVz-4" value="" style="endArrow=classic;html=1;rounded=0;elbow=vertical;" edge="1" parent="1">
          <mxGeometry width="50" height="50" relative="1" as="geometry">
            <mxPoint x="457.5" y="280" as="sourcePoint" />
            <mxPoint x="457.5" y="310" as="targetPoint" />
          </mxGeometry>
        </mxCell>
        <mxCell id="_onTbmmiMZOZwnDnvUVz-5" value="" style="endArrow=classic;html=1;rounded=0;elbow=vertical;" edge="1" parent="1">
          <mxGeometry width="50" height="50" relative="1" as="geometry">
            <mxPoint x="199" y="440" as="sourcePoint" />
            <mxPoint x="199" y="470" as="targetPoint" />
          </mxGeometry>
        </mxCell>
        <mxCell id="93HtIhqZbVTD-s761AVg-1" value="Cod_produto&amp;nbsp;" style="text;strokeColor=none;fillColor=none;align=left;verticalAlign=middle;spacingLeft=4;spacingRight=4;overflow=hidden;points=[[0,0.5],[1,0.5]];portConstraint=eastwest;rotatable=0;whiteSpace=wrap;html=1;" vertex="1" parent="1">
          <mxGeometry x="164" y="460" width="80" height="30" as="geometry" />
        </mxCell>
        <mxCell id="93HtIhqZbVTD-s761AVg-2" value="" style="endArrow=none;html=1;rounded=0;elbow=vertical;" edge="1" parent="1">
          <mxGeometry width="50" height="50" relative="1" as="geometry">
            <mxPoint x="279" y="417.5" as="sourcePoint" />
            <mxPoint x="298" y="418" as="targetPoint" />
            <Array as="points">
              <mxPoint x="298" y="418" />
              <mxPoint x="308" y="418" />
            </Array>
          </mxGeometry>
        </mxCell>
        <mxCell id="VI2cn3nu5YnILEQB0zQk-1" value="Nome" style="text;strokeColor=none;fillColor=none;align=left;verticalAlign=middle;spacingLeft=4;spacingRight=4;overflow=hidden;points=[[0,0.5],[1,0.5]];portConstraint=eastwest;rotatable=0;whiteSpace=wrap;html=1;" vertex="1" parent="1">
          <mxGeometry x="304" y="402" width="80" height="30" as="geometry" />
        </mxCell>
        <mxCell id="VI2cn3nu5YnILEQB0zQk-2" value="" style="endArrow=none;html=1;rounded=0;elbow=vertical;" edge="1" parent="1">
          <mxGeometry width="50" height="50" relative="1" as="geometry">
            <mxPoint x="129" y="419.5" as="sourcePoint" />
            <mxPoint x="159" y="419.5" as="targetPoint" />
          </mxGeometry>
        </mxCell>
        <mxCell id="G_RGpv8Ls2Ki0nVpcA1e-2" value="Preço" style="text;strokeColor=none;fillColor=none;align=left;verticalAlign=middle;spacingLeft=4;spacingRight=4;overflow=hidden;points=[[0,0.5],[1,0.5]];portConstraint=eastwest;rotatable=0;whiteSpace=wrap;html=1;" vertex="1" parent="1">
          <mxGeometry x="89" y="405" width="80" height="30" as="geometry" />
        </mxCell>
        <mxCell id="nvLa6RVRpImD7xgWfosf-1" value="Estoque" style="text;strokeColor=none;fillColor=none;align=left;verticalAlign=middle;spacingLeft=4;spacingRight=4;overflow=hidden;points=[[0,0.5],[1,0.5]];portConstraint=eastwest;rotatable=0;whiteSpace=wrap;html=1;" vertex="1" parent="1">
          <mxGeometry x="261" y="451" width="80" height="30" as="geometry" />
        </mxCell>
        <mxCell id="nvLa6RVRpImD7xgWfosf-4" value="" style="endArrow=none;html=1;rounded=0;elbow=vertical;" edge="1" parent="1">
          <mxGeometry width="50" height="50" relative="1" as="geometry">
            <mxPoint x="270" y="440" as="sourcePoint" />
            <mxPoint x="280" y="460" as="targetPoint" />
          </mxGeometry>
        </mxCell>
        <mxCell id="nvLa6RVRpImD7xgWfosf-5" value="" style="rhombus;whiteSpace=wrap;html=1;" vertex="1" parent="1">
          <mxGeometry x="283" y="31" width="60" height="58" as="geometry" />
        </mxCell>
        <mxCell id="Pe1Xa0jGYvy3Gdhccji2-9" value="FUNCIONÁRIO" style="text;strokeColor=none;fillColor=none;align=left;verticalAlign=middle;spacingLeft=4;spacingRight=4;overflow=hidden;points=[[0,0.5],[1,0.5]];portConstraint=eastwest;rotatable=0;whiteSpace=wrap;html=1;" vertex="1" parent="1">
          <mxGeometry x="488" y="45" width="105" height="30" as="geometry" />
        </mxCell>
        <mxCell id="nvLa6RVRpImD7xgWfosf-7" value="" style="endArrow=none;html=1;rounded=0;elbow=vertical;" edge="1" parent="1">
          <mxGeometry width="50" height="50" relative="1" as="geometry">
            <mxPoint x="161" y="59.5" as="sourcePoint" />
            <mxPoint x="284" y="60" as="targetPoint" />
          </mxGeometry>
        </mxCell>
        <mxCell id="nvLa6RVRpImD7xgWfosf-8" value="" style="endArrow=none;html=1;rounded=0;elbow=vertical;entryX=0;entryY=0.5;entryDx=0;entryDy=0;" edge="1" parent="1" target="Pe1Xa0jGYvy3Gdhccji2-8">
          <mxGeometry width="50" height="50" relative="1" as="geometry">
            <mxPoint x="342" y="59.5" as="sourcePoint" />
            <mxPoint x="465" y="60" as="targetPoint" />
          </mxGeometry>
        </mxCell>
        <mxCell id="nvLa6RVRpImD7xgWfosf-10" value="" style="rhombus;whiteSpace=wrap;html=1;" vertex="1" parent="1">
          <mxGeometry x="67" y="139" width="50" height="41" as="geometry" />
        </mxCell>
        <mxCell id="nvLa6RVRpImD7xgWfosf-11" value="" style="endArrow=none;html=1;rounded=0;elbow=vertical;" edge="1" parent="1">
          <mxGeometry width="50" height="50" relative="1" as="geometry">
            <mxPoint x="92" y="241" as="sourcePoint" />
            <mxPoint x="92" y="179" as="targetPoint" />
          </mxGeometry>
        </mxCell>
        <mxCell id="nvLa6RVRpImD7xgWfosf-12" value="" style="endArrow=none;html=1;rounded=0;elbow=vertical;" edge="1" parent="1">
          <mxGeometry width="50" height="50" relative="1" as="geometry">
            <mxPoint x="92" y="141" as="sourcePoint" />
            <mxPoint x="92" y="79" as="targetPoint" />
          </mxGeometry>
        </mxCell>
        <mxCell id="nvLa6RVRpImD7xgWfosf-13" value="" style="rhombus;whiteSpace=wrap;html=1;" vertex="1" parent="1">
          <mxGeometry x="518" y="140" width="50" height="41" as="geometry" />
        </mxCell>
        <mxCell id="nvLa6RVRpImD7xgWfosf-14" value="" style="endArrow=none;html=1;rounded=0;elbow=vertical;" edge="1" parent="1">
          <mxGeometry width="50" height="50" relative="1" as="geometry">
            <mxPoint x="543" y="140" as="sourcePoint" />
            <mxPoint x="542.5" y="81" as="targetPoint" />
          </mxGeometry>
        </mxCell>
        <mxCell id="nvLa6RVRpImD7xgWfosf-15" value="" style="endArrow=none;html=1;rounded=0;elbow=vertical;exitX=0.5;exitY=0;exitDx=0;exitDy=0;" edge="1" parent="1" source="PugNxQHc3r1IzAef0cKL-2">
          <mxGeometry width="50" height="50" relative="1" as="geometry">
            <mxPoint x="458.5" y="222" as="sourcePoint" />
            <mxPoint x="459" y="160" as="targetPoint" />
          </mxGeometry>
        </mxCell>
        <mxCell id="nvLa6RVRpImD7xgWfosf-17" value="" style="endArrow=none;html=1;rounded=0;elbow=vertical;entryX=0.22;entryY=0.415;entryDx=0;entryDy=0;entryPerimeter=0;" edge="1" parent="1">
          <mxGeometry width="50" height="50" relative="1" as="geometry">
            <mxPoint x="459" y="160" as="sourcePoint" />
            <mxPoint x="518" y="160.0150000000001" as="targetPoint" />
          </mxGeometry>
        </mxCell>
        <mxCell id="nvLa6RVRpImD7xgWfosf-19" value="" style="endArrow=none;html=1;rounded=0;elbow=vertical;" edge="1" parent="1">
          <mxGeometry width="50" height="50" relative="1" as="geometry">
            <mxPoint x="92" y="342" as="sourcePoint" />
            <mxPoint x="92" y="280" as="targetPoint" />
          </mxGeometry>
        </mxCell>
        <mxCell id="nvLa6RVRpImD7xgWfosf-20" value="" style="endArrow=none;html=1;rounded=0;elbow=vertical;" edge="1" parent="1">
          <mxGeometry width="50" height="50" relative="1" as="geometry">
            <mxPoint x="92" y="341" as="sourcePoint" />
            <mxPoint x="190" y="341" as="targetPoint" />
          </mxGeometry>
        </mxCell>
        <mxCell id="nvLa6RVRpImD7xgWfosf-22" value="" style="rhombus;whiteSpace=wrap;html=1;" vertex="1" parent="1">
          <mxGeometry x="190" y="320" width="50" height="41" as="geometry" />
        </mxCell>
        <mxCell id="nvLa6RVRpImD7xgWfosf-23" value="" style="endArrow=none;html=1;rounded=0;elbow=vertical;" edge="1" parent="1">
          <mxGeometry width="50" height="50" relative="1" as="geometry">
            <mxPoint x="215" y="400" as="sourcePoint" />
            <mxPoint x="215" y="360" as="targetPoint" />
          </mxGeometry>
        </mxCell>
      </root>
    </mxGraphModel>
  </diagram>
</mxfile>
